<?xml version="1.0" encoding="UTF-8" standalone="no"?>
<!-- Created with Inkscape (http://www.inkscape.org/) -->

<svg
   width="200.248mm"
   height="200.248mm"
   viewBox="0 0 200.248 200.248"
   version="1.1"
   id="svg8"
   sodipodi:docname="LOGO_nav.svg"
   inkscape:version="1.4.2 (f4327f4, 2025-05-13)"
   inkscape:export-filename="LOGO - FizjoFocus - fizjoterapia Paweł Kozyra big.png"
   inkscape:export-xdpi="50.799999"
   inkscape:export-ydpi="50.799999"
   xml:space="preserve"
   xmlns:inkscape="http://www.inkscape.org/namespaces/inkscape"
   xmlns:sodipodi="http://sodipodi.sourceforge.net/DTD/sodipodi-0.dtd"
   xmlns="http://www.w3.org/2000/svg"
   xmlns:svg="http://www.w3.org/2000/svg"
   xmlns:rdf="http://www.w3.org/1999/02/22-rdf-syntax-ns#"
   xmlns:cc="http://creativecommons.org/ns#"
   xmlns:dc="http://purl.org/dc/elements/1.1/"><defs
     id="defs2"><rect
       x="30.952381"
       y="-678.57141"
       width="1373.8094"
       height="645.2381"
       id="rect5" /><inkscape:path-effect
       effect="spiro"
       id="path-effect3409-0-6-1-7-3-1-6"
       is_visible="true"
       lpeversion="0" /><clipPath
       clipPathUnits="userSpaceOnUse"
       id="clipPath4"><rect
         style="fill:none;stroke:#000000;stroke-width:1.31279;stroke-linecap:square;paint-order:markers fill stroke"
         id="rect4"
         width="488.23294"
         height="485.34528"
         x="179.21735"
         y="-966.67792" /></clipPath><clipPath
       clipPathUnits="userSpaceOnUse"
       id="clipPath3"><rect
         style="fill:none;stroke:#000000;stroke-width:0.763971;stroke-linecap:square;paint-order:markers fill stroke"
         id="rect3"
         width="305.97269"
         height="305.97269"
         x="466.49225"
         y="-601.59735" /></clipPath></defs><sodipodi:namedview
     id="base"
     pagecolor="#666666"
     bordercolor="#666666"
     borderopacity="1.0"
     inkscape:pageopacity="0.0"
     inkscape:pageshadow="2"
     inkscape:zoom="0.35355339"
     inkscape:cx="1517.4512"
     inkscape:cy="719.8347"
     inkscape:document-units="mm"
     inkscape:current-layer="g1114"
     showgrid="false"
     inkscape:pagecheckerboard="false"
     inkscape:window-width="1920"
     inkscape:window-height="1009"
     inkscape:window-x="1912"
     inkscape:window-y="-8"
     inkscape:window-maximized="1"
     inkscape:showpageshadow="false"
     inkscape:deskcolor="#666666"
     borderlayer="false"
     showborder="false"
     showguides="false"
     inkscape:antialias-rendering="true"><sodipodi:guide
       position="-272.63375,3022.1079"
       orientation="0,11130.417"
       id="guide309"
       inkscape:locked="false" /><sodipodi:guide
       position="2672.2892,3022.1079"
       orientation="11593.754,0"
       id="guide311"
       inkscape:locked="false" /><sodipodi:guide
       position="2672.2892,-45.406315"
       orientation="0,-11130.417"
       id="guide313"
       inkscape:locked="false" /><sodipodi:guide
       position="-272.63375,-45.406315"
       orientation="-11593.754,0"
       id="guide315"
       inkscape:locked="false" /><sodipodi:guide
       position="-572.39837,2672.9703"
       orientation="0,11130.417"
       id="guide317"
       inkscape:locked="false" /><sodipodi:guide
       position="2672.2892,3022.1079"
       orientation="11593.754,0"
       id="guide319"
       inkscape:locked="false" /><sodipodi:guide
       position="2672.2892,-45.406315"
       orientation="0,-11130.417"
       id="guide321"
       inkscape:locked="false" /><sodipodi:guide
       position="77.679422,3091.4652"
       orientation="-11593.754,0"
       id="guide323"
       inkscape:locked="false" /></sodipodi:namedview><metadata
     id="metadata5"><rdf:RDF><cc:Work
         rdf:about=""><dc:format>image/svg+xml</dc:format><dc:type
           rdf:resource="http://purl.org/dc/dcmitype/StillImage" /></cc:Work></rdf:RDF></metadata><g
     inkscape:label="Layer 1"
     inkscape:groupmode="layer"
     id="layer1"
     transform="translate(116.67961,852.15468)"><g
       id="g1114"
       transform="matrix(0.65446365,0,0,0.65446365,-642.74645,-424.75512)"><g
         id="g7"
         clip-path="url(#clipPath3)"
         transform="translate(337.32145,-51.455815)"><g
           id="g2"
           transform="matrix(0.62825996,0,0,0.63546859,353.51518,11.97558)"
           clip-path="url(#clipPath4)"
           mask="none"><circle
             style="fill:#ffffff;stroke:#ffffff;stroke-width:1.52797;stroke-linecap:square;paint-order:markers fill stroke"
             id="path2"
             r="240.58328"
             cy="-724.79797"
             cx="423.30551" /><g
             id="g1"><g
               id="g84"
               transform="matrix(0.52929854,0,0,0.52929854,-15.838639,-524.67523)"><path
                 style="fill:#ffffff;stroke:#ffffff;stroke-width:7.48705;stroke-linejoin:bevel;stroke-dasharray:none"
                 d="m 805.20204,-165.68425 c -17.00146,-3.68929 -26.39714,-7.77599 -33.30765,-14.48744 -7.14605,-6.94015 -8.00125,-10.44473 -5.87121,-24.0599 2.92469,-18.69485 0.12973,-64.72286 -6.73247,-110.87199 -7.64347,-51.40313 -11.17841,-70.62589 -13.39525,-72.84269 -0.968,-0.96803 -14.94516,0.70251 -34.59887,4.13513 -29.29814,5.11711 -38.78268,5.93278 -85.06457,7.31544 -28.6494,0.85593 -57.74782,2.33481 -64.66319,3.28647 -6.91537,0.95162 -29.54749,2.30498 -50.29359,3.0074 l -37.7202,1.27711 -20.65631,9.15145 c -18.23386,8.07819 -22.03304,9.13646 -32.39602,9.02379 -9.31721,-0.10128 -13.65601,-1.17058 -21.02614,-5.18192 -9.2788,-5.05012 -9.28426,-5.05845 -6.67321,-10.10769 3.19656,-6.1814 10.17103,-11.59376 27.75174,-21.53585 l 13.45945,-7.61153 17.76882,2.08477 17.76882,2.08472 38.8235,-11.6162 c 62.20892,-18.61326 71.18932,-20.7252 88.14927,-20.73025 14.91181,-0.004 15.80804,-0.2631 47.5993,-13.73739 27.31635,-11.57763 36.42632,-14.52952 58.04812,-18.80926 14.10573,-2.792 30.67567,-7.191 36.8221,-9.77545 24.75655,-10.4098 35.77325,-13.50141 55.13556,-15.4727 l 19.80487,-2.0164 v -5.20419 c 0,-5.38208 -3.4365,-9.49299 -14.59008,-17.45333 -15.25929,-10.89064 -34.11229,-41.33615 -36.5436,-59.01389 -1.92629,-14.00562 1.18497,-22.08542 12.47908,-32.40758 17.39232,-15.89561 38.10745,-19.18987 58.03931,-9.2298 6.926,3.46096 12.30326,7.63065 14.56966,11.29775 3.3109,5.35713 12.74684,45.9871 12.74684,54.8862 0,2.12334 -2.74277,9.30694 -6.09497,15.96361 l -6.09502,12.10303 3.49015,6.80294 c 1.91954,3.7416 4.57187,7.21804 5.89405,7.72541 1.32218,0.50737 9.21282,-0.69463 17.53474,-2.67109 l 15.13084,-3.59356 16.02215,-16.37334 c 15.91017,-16.25889 27.66539,-25.08987 52.24625,-39.24957 10.35393,-5.96431 13.33865,-8.70283 15.57389,-14.28926 2.94659,-7.36424 6.70085,-10.6797 54.2426,-47.90201 39.1604,-30.66025 37.6433,-29.01427 43.0345,-46.6893 2.5741,-8.43938 4.8564,-15.35475 5.0716,-15.36749 0.2152,-0.0127 11.6635,-2.82382 25.4407,-6.24685 23.2823,-5.78465 25.278,-6.0168 28.2901,-3.29085 5.8257,5.2722 3.9831,11.60481 -7.2649,24.96747 -5.7782,6.86443 -16.0839,17.06615 -22.9016,22.67049 -6.8177,5.60435 -16.9325,14.88927 -22.4772,20.63316 -17.3992,18.02393 -65.1435,76.17214 -76.6925,93.40441 -12.28024,18.32328 -39.69757,53.33172 -62.5983,79.92999 l -14.98009,17.39874 v 117.76011 117.76011 l -6.62801,7.33638 c -12.19677,13.5004 -38.18111,23.57227 -68.96326,26.73111 -22.6772,2.32713 -28.40012,2.20674 -42.7098,-0.89842 z m 70.18211,-175.71108 c 4.92694,-3.74326 6.93583,-11.0133 4.76443,-17.24221 -1.04607,-3.00069 -2.42905,-5.48152 -3.07334,-5.51294 -5.43977,-0.26528 -8.50397,-10.00754 -31.54878,-100.30634 l -24.42957,-95.72477 3.60382,-4.58153 c 5.10002,-6.48364 4.51159,-12.44658 -1.85675,-18.81492 -4.57001,-4.56997 -6.40093,-5.27894 -11.22627,-4.34693 -7.43276,1.43566 -12.05237,7.09818 -12.05237,14.7733 0,6.82425 5.17403,13.27252 10.64973,13.27252 2.64049,0 4.10574,2.2438 6.158,9.43003 4.39896,15.40361 46.05926,180.31703 46.05926,182.32684 0,6.21577 -8.14481,-0.004 -38.20286,-29.17406 l -33.71233,-32.71628 2.71684,-5.20961 c 3.44128,-6.59878 3.50285,-17.38225 0.13645,-23.89217 -8.0849,-15.63453 -33.41127,-15.63453 -41.49621,0 -10.29963,19.91725 9.60214,41.75797 30.78898,33.78862 1.07691,-0.40504 17.4448,14.36235 36.37307,32.81646 30.77108,30.00024 34.41505,34.17208 34.41505,39.40061 0,11.29265 13.20459,18.34467 21.93285,11.71338 z"
                 id="path1" /><g
                 id="g83"><path
                   style="vector-effect:none;fill:#1690d6;fill-opacity:1;fill-rule:evenodd;stroke:none;stroke-width:0;stroke-linecap:round;stroke-linejoin:round;stroke-miterlimit:4;stroke-dasharray:none;stroke-dashoffset:0;stroke-opacity:1;paint-order:markers fill stroke"
                   d="m 813.37427,-72.76124 c -51.0285,-5.85899 -96.3076,-25.59601 -134.3041,-58.541 -41.0996,-35.63598 -69.0354,-85.77299 -78.8974,-141.59899 -3.2813,-18.57499 -3.2662,-59.34101 0.029,-77.744 1.3842,-7.73002 2.5305,-14.721 2.5472,-15.53501 0.03,-1.46799 -8.8407,-0.845 -33.04241,2.31902 -6.8213,0.89199 -30.26172,2.08597 -52.08985,2.65398 l -39.6875,1.03201 -24.15415,10.303 c -24.13987,10.296 -24.16143,10.301 -36.38021,9.276 -10.23869,-0.85902 -14.3092,-2.18101 -25.04175,-8.133 -7.04866,-3.91001 -12.81576,-8.123 -12.81576,-9.364 0,-1.23999 1.94016,-6.72901 4.31152,-12.197 l 4.31149,-9.941 22.06469,-12.54501 22.06469,-12.54501 17.85882,2.35202 17.85884,2.35198 55.55298,-16.35498 c 52.34503,-15.41002 56.4177,-16.355 70.528,-16.355 13.4278,0 16.4289,-0.60899 29.0448,-5.89 13.3047,-5.569 14.5474,-6.536 22.8518,-17.776 23.8082,-32.22602 60.4795,-60.495 99.4215,-76.639 7.9582,-3.30002 14.469,-6.45102 14.4686,-7.004 0,-0.553 -1.4029,-4.72501 -3.1164,-9.27301 -6.4541,-17.128 -5.8676,-31.852 1.7853,-44.822 3.5948,-6.093 16.8318,-16.684 27.7902,-22.236 15.8187,-8.014 41.2645,-5.875 58.209,4.891 12.2374,7.776 15.7282,14.596 20.4045,39.865 2.2378,12.092 4.0688,22.142 4.0688,22.333 0,0.19 3.5346,0.825 7.8548,1.409 4.3201,0.585 13.9894,2.59299 21.4872,4.46302 l 13.6324,3.40098 9.6175,-7.4 c 5.2897,-4.071 16.7844,-10.961 25.5439,-15.312 12.5951,-6.257 16.1417,-8.795 16.9555,-12.135 2.2138,-9.084 10.6027,-16.987 51.87903,-48.871 l 42.815,-33.073 4.7604,-17.345 4.7604,-17.345 31.0726,-7.296 31.0726,-7.297 6.5269,6.374 c 6.1131,5.969 6.527,6.98 6.527,15.937 v 9.563 l -16.7598,17.4 c -9.2178,9.571 -21.5249,20.801 -27.349,24.957 -13.8034,9.85 -70.989,77.916 -93.4171,111.192 l -15.98293,23.71299 12.48703,11.85101 c 36.4831,34.62501 60.7657,79.449 70.953,130.97301 4.0602,20.536 4.0602,65.33401 0,85.86999 -5.8687,29.68299 -16.2938,57.11902 -30.7567,80.944 -35.9622,59.24302 -96.68223,100.705 -164.90163,112.60201 -17.3905,3.032 -49.2167,4.288 -64.4201,2.54199 z m 59.1527,-94.956 c 24.7917,-6.28898 44.2879,-17.64199 50.3172,-29.30199 2.0261,-3.91801 2.396,-22.73099 2.396,-121.86801 v -117.235 l 3.5234,-3.15 c 9.5216,-8.51299 60.2312,-71.59199 70.9947,-88.31299 6.73293,-10.45901 13.14223,-19.95801 14.24273,-21.10701 1.1005,-1.15 17.2899,-20.498 35.9764,-42.995 26.9678,-32.468 36.052,-42.269 44.0431,-47.519 5.5371,-3.638 17.0797,-14.245 25.6501,-23.572 17.0132,-18.514 19.0775,-23.758 12.2255,-31.051 l -3.3572,-3.574 -25.1682,5.958 c -13.8425,3.277 -25.9858,6.485 -26.9849,7.131 -0.9991,0.645 -3.5428,7.595 -5.6524,15.446 -2.1097,7.85 -5.0129,15.594 -6.4516,17.209 -1.4387,1.616 -20.8473,17.073 -43.1301,34.351 -22.28293,17.277 -41.80823,32.862 -43.38963,34.633 -1.5814,1.771 -3.8675,6.147 -5.0801,9.725 -2.0177,5.953 -3.6768,7.279 -19.5587,15.629 -20.9035,10.99099 -35.1772,22.06801 -50.8792,39.48601 l -11.752,13.037 -14.8591,3.67099 c -8.1726,2.02001 -15.9441,3.25501 -17.2702,2.746 -1.3261,-0.508 -3.8565,-3.742 -5.6232,-7.186 l -3.212,-6.26099 6.3636,-12.656 6.3636,-12.65701 -4.1412,-24.574 c -4.8657,-28.873 -7.8669,-36.118 -17.577,-42.43 -22.0853,-14.357 -47.8921,-11.778 -67.7677,6.771 -12.7175,11.869 -14.8595,25.4 -7.3568,46.472 6.7435,18.94001 26.6196,44.64901 38.5266,49.833 5.2773,2.29801 7.3035,4.34101 8.7992,8.87301 1.0688,3.238 1.541,6.53899 1.0495,7.33398 -0.4916,0.79502 -8.544,1.96401 -17.8943,2.59602 -21.6891,1.46798 -32.0596,4.18399 -52.0971,13.64599 -14.04,6.63001 -19.3203,8.13001 -40.1443,11.397 -22.8385,3.58299 -25.5887,4.45202 -57.8776,18.27401 l -33.8997,14.512 -17.3633,0.13398 c -17.00155,0.13102 -18.49012,0.47001 -71.44928,16.27701 l -54.08597,16.143 -17.40268,-2.23399 -17.40265,-2.23501 -18.63505,10.366 c -14.69255,8.17301 -19.41648,11.69602 -22.32856,16.65201 -2.03142,3.45799 -3.70398,7.03101 -3.71679,7.94099 -0.0127,0.909 4.21865,3.87001 9.40322,6.57899 6.99873,3.65702 12.21486,5.07101 20.25324,5.48902 10.20482,0.52999 12.13377,-0.0101 33.57965,-9.47401 l 22.75287,-10.03599 h 21.09695 c 29.21156,0 71.42662,-2.85401 86.83055,-5.871 7.0803,-1.38599 13.5034,-2.13101 14.2736,-1.65499 0.7702,0.47598 15.069,0.95699 31.7751,1.06899 31.3256,0.21101 56.3915,-2.44401 97.1811,-10.292 14.1967,-2.73201 17.5656,-2.92999 19.3106,-1.13501 1.8579,1.91201 9.886,51.074 17.9844,110.13199 2.9813,21.74103 3.3674,61.92401 0.7217,75.09902 -1.5817,7.87501 -1.4258,10.014 1.1211,15.381 4.9612,10.45501 21.3687,18.73699 44.4988,22.461 14.3734,2.314 44.9713,0.31301 62.254,-4.07101 z"
                   id="path3959"
                   inkscape:connector-curvature="0"
                   sodipodi:nodetypes="scsscccccccscccccccsccccccccsscccccccccccccsccsccscsccsscssccccccccccccccsccccccccccscccccsccsccccccccccccccscscccscccc" /></g><path
                 style="fill:none;stroke:#1690d6;stroke-width:3.82481;stroke-linecap:round;stroke-linejoin:round;stroke-miterlimit:4;stroke-dasharray:none;stroke-opacity:1"
                 d="m 10221.955,-1364.0229 50.94,85.2033 3.906,-1.9993 1.966,-163.0663"
                 id="path3407-5-0-6-3-3-2-5"
                 inkscape:connector-curvature="0"
                 sodipodi:nodetypes="cccc"
                 transform="matrix(1.2623398,-0.33844153,0.33824294,1.263081,-11670.06,4739.5182)"
                 inkscape:original-d="m 10221.955,-1364.0229 c 62.169,30.5965 50.94,85.2033 50.94,85.2033 l 3.906,-1.9993 1.966,-163.0663"
                 inkscape:path-effect="#path-effect3409-0-6-1-7-3-1-6" /><ellipse
                 style="vector-effect:none;fill:#ffffff;fill-opacity:1;fill-rule:evenodd;stroke:#1690d6;stroke-width:5;stroke-linecap:round;stroke-linejoin:round;stroke-miterlimit:4;stroke-dasharray:none;stroke-dashoffset:0;stroke-opacity:1;paint-order:markers fill stroke"
                 id="path3375-2-2-7-8-5-7-26-5"
                 transform="matrix(0.96588783,-0.25896082,0.25867733,0.96596379,0,0)"
                 ry="20.564209"
                 rx="20.553759"
                 cy="-232.01286"
                 cx="862.15027" /><ellipse
                 style="vector-effect:none;fill:#ffffff;fill-opacity:1;fill-rule:evenodd;stroke:#1690d6;stroke-width:5;stroke-linecap:round;stroke-linejoin:round;stroke-miterlimit:4;stroke-dasharray:none;stroke-dashoffset:0;stroke-opacity:1;paint-order:markers fill stroke"
                 id="path3375-0-88-2-0-2-3-7-0"
                 transform="matrix(0.96589108,-0.25894867,0.25868947,0.96596054,0,0)"
                 ry="11.075716"
                 rx="11.070569"
                 cy="-116.69454"
                 cx="928.92596" /><ellipse
                 style="vector-effect:none;fill:#ffffff;fill-opacity:1;fill-rule:evenodd;stroke:#1690d6;stroke-width:5;stroke-linecap:round;stroke-linejoin:round;stroke-miterlimit:4;stroke-dasharray:none;stroke-dashoffset:0;stroke-opacity:1;paint-order:markers fill stroke"
                 id="path3375-0-88-2-0-2-8-5-3-9"
                 transform="matrix(0.96589108,-0.25894867,0.25868947,0.96596054,0,0)"
                 ry="11.075716"
                 rx="11.070569"
                 cy="-343.40067"
                 cx="934.19513" /><ellipse
                 style="vector-effect:none;fill:#ffffff;fill-opacity:1;fill-rule:evenodd;stroke:none;stroke-width:0;stroke-linecap:round;stroke-linejoin:round;stroke-miterlimit:4;stroke-dasharray:none;stroke-dashoffset:0;stroke-opacity:1;paint-order:markers fill stroke"
                 id="path3957"
                 transform="matrix(0.99360338,-0.11292616,0.16916019,0.98558857,0,0)"
                 ry="36.738361"
                 rx="80.864433"
                 cy="-103.77415"
                 cx="869.73877" /></g><rect
               style="fill:none;fill-opacity:0.240964;stroke:none;stroke-width:5.51712;stroke-linecap:square;paint-order:markers fill stroke"
               id="rect1"
               width="565.98511"
               height="335.95258"
               x="104.24527"
               y="-898.71954" /></g></g><text
           xml:space="preserve"
           transform="matrix(0.55804467,0,0,0.55803842,811.57763,-251.53987)"
           id="text4"
           style="font-style:normal;font-variant:normal;font-weight:normal;font-stretch:normal;font-size:325.425px;line-height:1.25;font-family:Dubai;-inkscape-font-specification:Dubai;white-space:pre;shape-inside:url(#rect5);display:inline;fill:#ffffff;stroke-width:1.00012;stroke-dasharray:none"><tspan
             x="30.953125"
             y="-392.20476"
             id="tspan2">FIZJO</tspan></text><text
           xml:space="preserve"
           style="font-size:182.881px;line-height:1.25;font-family:Dubai;-inkscape-font-specification:'Dubai, Normal';fill:#ffffff;stroke-width:0.561978"
           x="785.48657"
           y="-297.853"
           id="text7"
           transform="scale(0.99675566,1.0032549)"><tspan
             sodipodi:role="line"
             id="tspan7"
             style="fill:#ffffff;stroke-width:0.561978"
             x="785.48657"
             y="-297.853">FOCUS</tspan></text><rect
           style="fill:#ffffff;stroke:#000000;stroke-width:0.492477;stroke-linecap:square;stroke-dasharray:none;paint-order:markers fill stroke"
           id="rect7"
           width="523.995"
           height="10.565687"
           x="787.38544"
           y="-448.89426" /></g></g></g></svg>
